<svg width="777" height="282" viewBox="0 0 777 282" fill="none" xmlns="http://www.w3.org/2000/svg">
<path d="M664.408 1.5H662.908V3V119.209V120.709H664.408H689.297H690.797V119.209V43.4037L744.291 120.068L744.739 120.709H745.522H773.813H775.313V119.209V3V1.5H773.813H748.924H747.424V3V77.613L693.923 2.13259L693.475 1.5H692.699H664.408Z" stroke="white" stroke-width="3"/>
<path d="M572.02 1.5H570.976L570.613 2.47973L527.639 118.689L526.892 120.709H529.046H556.621H557.702L558.044 119.684L567.909 90.0903H608.189L618.229 119.691L618.575 120.709H619.65H647.941H650.077L649.352 118.701L607.452 2.49123L607.095 1.5H606.041H572.02ZM575.181 68.4681L588.135 29.9209L601.09 68.4681H575.181Z" stroke="white" stroke-width="3"/>
<path d="M418.034 1.5H416.534V3V119.209V120.709H418.034H445.967H447.467V119.209V75.0493H458.057L488.052 120.041L488.497 120.709H489.3H521.53H524.421L522.757 118.346L490.485 72.5132C497.573 71.2666 503.425 68.8615 507.964 65.2305L507.967 65.2277C513.247 60.9777 515.868 55.1591 515.868 47.9439V27.5311C515.868 22.9193 514.964 18.8821 513.085 15.4803C511.202 12.0717 508.386 9.38446 504.699 7.41179C497.426 3.40297 485.885 1.5 470.32 1.5H418.034ZM482.201 26.6305L482.235 26.6531L482.27 26.6738C484.264 27.8524 485.472 30.1486 485.472 34.1563V42.393C485.472 47.2341 484.312 50.0195 482.51 51.3847C481.562 52.0421 480.086 52.6095 477.968 53.005C475.85 53.4002 473.188 53.6062 469.961 53.6062H447.467V24.3756H469.961C476.128 24.3756 480.09 25.2236 482.201 26.6305Z" stroke="white" stroke-width="3"/>
<path d="M325.645 1.5H324.601L324.238 2.47973L281.264 118.689L280.517 120.709H282.671H310.246H311.327L311.669 119.684L321.534 90.0903H361.814L371.854 119.691L372.2 120.709H373.275H401.566H403.702L402.977 118.701L361.077 2.49123L360.72 1.5H359.666H325.645ZM328.806 68.4681L341.76 29.9209L354.715 68.4681H328.806Z" stroke="white" stroke-width="3"/>
<path d="M132.141 1.5H130.641V3V119.209V120.709H132.141H157.746H159.246V119.209V40.0036L187.308 119.708L187.661 120.709H188.723H211.106H212.178L212.525 119.694L239.509 40.7184V119.209V120.709H241.009H266.256H267.756V119.209V3V1.5H266.256H228.833H227.759L227.413 2.51649L200.532 81.4562L173.31 2.51101L172.961 1.5H171.892H132.141Z" stroke="white" stroke-width="3"/>
<path d="M3 1.5H1.5V3V87.3369C1.5 98.9926 5.89075 107.907 14.7448 113.831C23.4922 119.683 36.4238 122.5 53.3156 122.5C70.2665 122.5 83.2419 119.683 92.0187 113.832C100.903 107.91 105.31 98.9949 105.31 87.3369V3V1.5H103.81H75.8771H74.3771V3V87.3369C74.3771 92.2634 72.8326 95.3056 70.0917 96.9732C67.2466 98.6556 61.8861 99.6244 53.6738 99.6244C45.3723 99.6244 39.8079 98.6641 36.6989 96.9612C33.9704 95.291 32.4332 92.2516 32.4332 87.3369V3V1.5H30.9332H3Z" stroke="white" stroke-width="3"/>
<path d="M505.15 161.264H503.65V162.764V277.236V278.736H505.15H532.666H534.166V277.236V229.702H579.847V277.236V278.736H581.347H608.863H610.363V277.236V162.764V161.264H608.863H581.347H579.847V162.764V207.123H534.166V162.764V161.264H532.666H505.15Z" stroke="white" stroke-width="3"/>
<path d="M432.891 279.784L432.896 279.785C437.08 280.263 441.783 280.5 447 280.5C459.219 280.5 471.667 279.195 484.343 276.589L485.541 276.343V275.12V254.306V252.419L483.702 252.845C469.037 256.248 457.763 257.922 449.823 257.922C440.444 257.922 433.647 256.632 429.244 254.225C427.065 253.034 425.503 251.587 424.48 249.91C423.46 248.236 422.925 246.25 422.925 243.9V195.218C422.925 192.194 423.57 189.844 424.748 188.065C425.917 186.299 427.695 184.967 430.198 184.115L430.213 184.11L430.228 184.105C432.715 183.2 435.061 182.645 437.269 182.424C439.668 182.196 443.023 182.078 447.353 182.078C457.549 182.078 469.42 183.702 482.983 186.975L484.835 187.422V185.517V164.88V163.615L483.587 163.402C468.384 160.809 456.177 159.5 447 159.5C429.188 159.5 415.57 162.391 406.363 168.386C397.046 174.453 392.409 183.595 392.409 195.571V245.84C392.409 251.702 393.692 256.854 396.319 261.238C398.771 265.525 401.861 268.936 405.6 271.429L405.615 271.439L405.63 271.448C409.323 273.787 413.945 275.661 419.454 277.099C424.327 278.406 428.808 279.304 432.891 279.784Z" stroke="white" stroke-width="3"/>
<path d="M285.195 161.264H283.695V162.764V277.236V278.736H285.195H374.269H375.769V277.236V257.658V256.158H374.269H314.211V229.702H366.684H368.184V228.202V208.623V207.123H366.684H314.211V183.842H372.505H374.005V182.342V162.764V161.264H372.505H285.195Z" stroke="white" stroke-width="3"/>
<path d="M166.449 182.342V183.842H167.949H201.726V277.236V278.736H203.226H230.741H232.241V277.236V183.842H265.842H267.342V182.342V162.764V161.264H265.842H167.949H166.449V162.764V182.342Z" stroke="white" stroke-width="3"/>
</svg>
