<svg width="83" height="32" viewBox="0 0 83 32" fill="none" xmlns="http://www.w3.org/2000/svg">
<g clip-path="url(#clip0_1_4147)">
<path d="M10.6021 31.9947C10.7082 31.5825 10.8368 31.1764 10.9872 30.7782C11.2446 29.9146 11.2766 29.7863 11.4691 28.9227C11.7883 27.419 11.7585 27.5451 11.7883 26.2354C11.7883 25.1757 11.7883 25.0835 11.7244 24.7635C11.5638 23.8034 11.1457 22.8762 10.5042 22.2044C9.7595 21.4043 8.99352 21.0525 7.83817 20.9879C7.25943 20.9561 6.48814 20.8279 6.10302 20.67C5.77513 20.5604 5.46238 20.4102 5.17215 20.2228C4.59341 19.871 3.91892 19.0709 3.78913 18.6863L3.75722 18.6227L3.82105 18.6545L4.24233 19.0741C4.46681 19.2659 4.69235 19.4577 4.78809 19.5213C5.26594 19.7738 5.77288 19.9673 6.29771 20.0978C6.49822 20.1417 6.70306 20.163 6.90836 20.1613C7.28542 20.1662 7.66205 20.1343 8.03286 20.066C8.44989 20.0342 8.83607 19.9695 8.86798 19.9695C9.09246 19.9695 10.0563 20.5778 10.6021 21.0292C11.5943 21.8736 12.2543 23.0408 12.4649 24.3237C12.5371 24.9504 12.5588 25.5819 12.5298 26.2121C12.433 27.2357 12.0798 28.5794 11.5978 29.7948C11.1808 30.8746 10.6382 32.0901 10.6021 31.9947ZM15.8703 31.6418C15.5171 30.8428 14.9703 29.531 14.8064 29.0191C14.3575 27.6755 14.1681 26.7472 14.1681 25.7236C14.1351 24.7953 14.2 24.2199 14.4245 23.5163C14.7573 22.487 15.3821 21.5758 16.2235 20.8925C16.7054 20.5078 17.6363 19.9642 17.8288 19.9642C17.8618 19.9642 18.2469 20.0289 18.6321 20.0607C19.0136 20.1292 19.4008 20.1612 19.7885 20.156C20.3576 20.1322 20.9155 19.9908 21.4268 19.7406C21.8768 19.5488 22.0651 19.4227 22.5194 18.9724C22.712 18.7806 22.9045 18.6206 22.9045 18.6206C22.9364 18.6524 22.8077 18.877 22.712 19.037C22.4826 19.3405 22.2338 19.629 21.9673 19.9007C21.5096 20.2884 20.9727 20.5723 20.3938 20.7325C19.8906 20.8722 19.3738 20.9578 18.8523 20.9879C18.2956 21.0017 17.7481 21.1328 17.2459 21.3725C16.0894 21.9479 15.1575 23.3562 14.933 24.8599C14.9011 25.0835 14.9011 25.3717 14.9011 26.1072C14.9011 27.3555 14.9011 27.419 15.2203 29.0191C15.3333 29.6278 15.4944 30.2266 15.7022 30.81C15.9586 31.5782 16.0873 31.9301 16.0554 31.9947C16.0554 32.0265 15.9586 31.8665 15.8628 31.6418H15.8703ZM10.1201 31.29C10.1359 31.1931 10.1576 31.0972 10.185 31.0028C10.2489 30.7782 10.2489 30.6849 10.2489 29.8192C10.217 28.8909 10.217 28.8591 10.1521 28.5709C9.99142 27.8991 9.70311 27.3226 9.15629 26.459C8.8999 26.0754 8.8999 26.0754 8.96373 26.1072C9.18851 26.311 9.39301 26.536 9.57439 26.779C9.84888 27.1378 10.0856 27.5238 10.2808 27.9309C10.5698 28.4635 10.7346 29.0543 10.7627 29.6592V30.011L10.7308 29.8828C10.6989 29.7863 10.667 29.7546 10.634 29.7546C10.601 29.7546 10.6021 29.7863 10.5702 29.9146C10.5063 30.4582 10.2808 31.1629 10.1521 31.2921C10.0882 31.3229 10.0882 31.3229 10.1201 31.29ZM16.5129 31.29C16.3841 31.13 16.2235 30.6182 16.1267 30.1064C16.0628 29.691 16.0309 29.6592 15.966 29.8828L15.9022 30.0428L15.9341 29.691C15.9297 29.3194 15.995 28.9503 16.1267 28.6027C16.2873 28.0273 16.8012 27.1637 17.2831 26.5554C17.4437 26.3636 17.7331 26.0754 17.7331 26.1072C17.765 26.1072 17.6682 26.2354 17.5725 26.3954C17.0267 27.2272 16.7373 27.8355 16.5767 28.4745C16.448 28.8909 16.448 29.0827 16.448 29.9464C16.448 30.6828 16.448 30.7782 16.5129 31.0346C16.5448 31.1946 16.5767 31.3229 16.5767 31.3229C16.5599 31.3049 16.5373 31.2933 16.5129 31.29ZM10.8914 27.8355C10.9034 27.2661 10.8495 26.6971 10.7308 26.14C10.5702 25.5328 10.3776 25.1863 10.0563 24.861C9.83077 24.6363 9.73715 24.5728 9.12437 24.2527C7.39029 23.3245 6.26579 22.4926 5.72003 21.7572C5.49449 21.469 5.36683 21.149 5.36683 20.9889C5.39875 20.9254 5.39875 20.9571 5.59131 21.2136C5.84876 21.5315 5.88067 21.5972 6.29771 21.8494C6.66878 22.1326 7.06679 22.3789 7.48603 22.5848C8.13577 22.8572 8.80071 23.0922 9.47757 23.2884C10.2808 23.5449 10.5414 23.6402 10.6989 23.7049C10.9872 23.8649 11.3372 24.4403 11.5021 25.0168C11.5538 25.2909 11.5752 25.5698 11.5659 25.8486C11.5659 26.3922 11.5659 26.4558 11.534 26.4558C11.5021 26.4558 11.5021 26.4558 11.3415 25.82L11.2446 25.4046L11.2127 26.3C11.2127 27.2283 11.1808 27.5801 11.084 28.0601C11.0518 28.181 11.0087 28.2988 10.9553 28.4119L10.9234 28.5402L10.8914 27.8355ZM15.7448 28.4427C15.6809 28.3473 15.616 28.0273 15.5522 27.8069C15.4873 27.3597 15.4873 27.0715 15.4554 26.2714V25.4078L15.3192 25.856C15.1915 26.4632 15.1915 26.4632 15.1267 26.4632C15.0947 26.4632 15.0947 26.3996 15.0947 25.8878C15.1267 25.3442 15.1267 25.252 15.1915 24.9913C15.3522 24.4159 15.7054 23.8723 16.0267 23.6805C16.1873 23.6159 16.5724 23.4876 17.2469 23.2958C17.9117 23.0947 18.5658 22.8598 19.2065 22.5922C19.5937 22.39 19.9688 22.1656 20.33 21.9204C20.7162 21.6322 20.8768 21.5039 21.0374 21.2846C21.1332 21.1882 21.1981 21.061 21.2619 20.9964L21.3257 20.9328L21.2938 21.061C21.2619 21.3789 21.0374 21.7328 20.6555 22.1482C20.0172 22.8201 19.0502 23.4601 17.6044 24.2284C16.9661 24.5802 16.8331 24.6755 16.5767 24.932C16.3309 25.1925 16.1546 25.5102 16.0639 25.856C15.8714 26.4314 15.8065 26.9157 15.8065 27.9033C15.8065 28.2551 15.7745 28.5391 15.7745 28.5391C15.7712 28.5053 15.7611 28.4725 15.7448 28.4427ZM10.5414 27.383C10.3863 27.2031 10.2455 27.0114 10.1201 26.8097C9.73503 26.2661 9.34991 25.7861 9.12437 25.6261C8.96986 25.5205 8.80891 25.4246 8.64245 25.3389C8.4818 25.2425 8.1935 25.0507 8.06477 24.9542C7.74562 24.7306 6.97219 23.9624 6.74772 23.6752C6.61899 23.4823 6.42856 23.1305 6.42856 23.067C6.42856 23.0352 6.52537 23.1305 7.0073 23.547C7.26369 23.7388 7.55306 23.9624 7.64561 24.0588C8.12754 24.4106 8.57755 24.6342 8.89884 24.666L9.02756 24.6989L9.22012 24.9224C9.34895 25.1112 9.48817 25.2927 9.63715 25.4661C10.0233 26.0107 10.3446 26.5257 10.4723 26.9062C10.5096 27.0046 10.5526 27.1008 10.601 27.1944C10.6271 27.2548 10.638 27.3206 10.6329 27.3862V27.5144L10.5414 27.383ZM16.0341 27.383C16.0454 27.3162 16.067 27.2515 16.098 27.1912C16.1468 27.0979 16.1898 27.0016 16.2267 26.903C16.3873 26.4547 16.6437 26.0075 17.2225 25.2393C17.6395 24.6957 17.6714 24.6957 17.7682 24.6957C17.8703 24.6835 17.9687 24.6507 18.0576 24.5992C18.4746 24.471 18.8608 24.2156 19.5991 23.6074C19.8236 23.4156 20.081 23.192 20.1449 23.1274C20.2736 23.0638 20.2736 23.0638 20.2417 23.1274C20.081 23.672 18.8927 24.8557 18.0576 25.3357C17.9 25.4069 17.7494 25.4924 17.6076 25.5911C17.3831 25.7511 17.0299 26.1676 16.5799 26.8065C16.0309 27.579 16.0309 27.5515 16.0309 27.3872L16.0341 27.383ZM14.9096 21.1437C14.9095 21.0575 14.9203 20.9717 14.9415 20.8883C15.0064 20.6965 15.0064 20.5365 15.0384 20.0564C15.0384 19.3528 15.0064 18.9968 14.9096 18.5528C14.7171 17.6891 14.4596 17.1444 13.4319 15.5772C12.9819 14.9054 12.7255 14.4253 12.7574 14.3935C12.878 14.3589 12.996 14.3161 13.1106 14.2653C13.3351 14.1689 13.4298 14.1053 13.4298 14.0735C13.3702 14.0149 13.3058 13.9614 13.2372 13.9135C13.1748 13.8698 13.1205 13.8157 13.0766 13.7535C13.1794 13.593 13.2977 13.4429 13.4298 13.3053C13.6224 13.0817 13.783 12.8899 13.749 12.8899C13.749 12.857 13.3638 13.0499 13.1383 13.1452C12.5287 13.5288 11.9819 14.0089 11.9819 14.2335C11.9819 14.2653 12.0787 14.5207 12.1755 14.8089C12.2723 15.0972 12.4 15.4172 12.4319 15.5507C12.5076 15.7537 12.5296 15.9726 12.4957 16.1865C12.4957 16.5712 12.4957 16.603 12.4319 16.763C12.371 16.8865 12.2835 16.995 12.1755 17.0809C12.1425 17.0809 12.1425 17.0809 12.2074 16.9526C12.4 16.3168 12.2713 15.5454 11.8542 15.0972C11.6728 14.9171 11.4346 14.8048 11.1797 14.7793C10.9861 14.7475 10.9542 14.7475 10.3116 14.8757L10.2478 14.9075L10.3116 14.811C10.3784 14.755 10.4548 14.7116 10.5372 14.6828C10.7096 14.608 10.8472 14.4709 10.9223 14.2992C10.9861 14.171 11.2117 13.9813 11.5329 13.7238C12.5968 12.892 13.4915 12.3802 14.1341 12.3155C14.616 12.2519 15.066 12.4119 15.2586 12.7955C15.3554 12.9556 15.3554 13.0191 15.2586 12.9238C15.0341 12.732 14.6479 12.7955 14.1022 13.1474C13.9113 13.2729 13.7384 13.4237 13.5883 13.5956C13.5564 13.6592 13.5564 13.691 13.6202 13.7556C13.6851 13.8838 13.9394 14.1074 14.1671 14.2356C14.3034 14.3123 14.4601 14.3456 14.616 14.331C14.7372 14.3385 14.8583 14.3167 14.9692 14.2674C15.0022 14.2674 15.066 14.2356 15.066 14.2674C15.0979 14.2674 15.0979 14.331 15.0979 14.4274C15.0979 14.5557 15.0979 14.5875 15.0341 14.6192C14.9054 14.7157 14.4554 14.7475 13.9702 14.6828L13.5851 14.651V14.7475C13.6209 14.872 13.6751 14.9906 13.7458 15.0993C13.9892 15.5625 14.2913 15.9927 14.6447 16.3794C14.8703 16.603 14.9022 16.6665 15.0309 17.0152C15.2353 17.6672 15.3428 18.3455 15.3501 19.0285C15.3501 19.7957 15.2213 20.4994 15.0607 20.884C14.9703 21.0525 14.9064 21.1797 14.9064 21.1479L14.9096 21.1437ZM7.67966 18.9681C6.3626 18.8399 4.75618 18.2963 3.47104 17.5609C2.8021 17.1338 2.17802 16.6406 1.60822 16.089C1.35184 15.8008 0.837992 15.1289 0.483728 14.6171C0.227338 14.2335 -0.0301151 13.7535 0.00286447 13.7217C0.00286447 13.6889 0.163507 13.8171 0.356065 14.0089C0.933104 14.5522 1.55638 15.0447 2.21888 15.4808C2.60399 15.7054 3.34338 16.089 3.47104 16.1166C3.56785 16.1484 3.56785 16.1484 3.53593 16.0848C3.50402 16.053 3.24656 15.7669 2.9572 15.449C2.12739 14.6235 1.54439 13.8531 1.09438 12.9577C0.483728 11.6458 0.0986116 10.4621 0.0347802 9.37387C0.00286447 9.05596 0.00286447 8.92668 0.0666959 8.31419C0.0986116 7.93059 0.130527 7.57878 0.130527 7.54593C0.163507 7.48235 0.163507 7.51414 0.323085 7.86383C0.434687 8.20081 0.563583 8.53187 0.709265 8.85569C0.965655 9.56037 0.998635 9.68753 1.22311 10.104C1.70504 10.9676 2.25079 11.7677 2.31463 11.703C2.31463 11.703 2.21888 11.3512 2.09015 10.9676C1.67312 9.72038 1.60822 9.27214 1.57631 8.05669C1.57631 7.16021 1.60822 6.74482 1.70504 6.16835C1.83833 5.49141 2.03164 4.82757 2.28271 4.18465C2.44654 3.74382 2.79655 3.03914 2.89336 2.94377L2.9572 2.87913L2.92528 2.94377C2.92528 2.97556 2.86145 3.23094 2.79655 3.48738C2.54016 4.54706 2.50825 5.08749 2.50825 6.33472C2.51408 7.01171 2.58929 7.68634 2.73272 8.3481C2.86145 8.95635 3.02209 9.46818 3.11784 9.46818V9.37175C3.11784 8.95635 3.43699 7.93271 3.82424 6.87622C4.24233 5.88436 4.94874 4.63713 5.52641 3.90066C5.71897 3.64527 6.74665 2.62163 7.09985 2.30161C7.48497 1.9498 8.09562 1.56514 8.60947 1.24194C9.02863 1.02364 10.0563 0.511822 10.5063 0.317902C10.8914 0.189681 11.2127 0.061461 11.5021 0H11.5978L11.534 0.0635804C11.5021 0.0964302 11.3085 0.223591 11.1159 0.351811C10.9234 0.480032 10.6989 0.635804 10.6021 0.703623C9.38183 1.76012 8.73926 2.43725 8.09669 3.32737C7.11936 4.69371 6.45082 6.25474 6.13706 7.90304C6.04427 8.44266 6.00154 8.98964 6.0094 9.53706C6.00121 10.2792 6.0765 11.02 6.23387 11.7454C6.41211 12.6168 6.65898 13.4728 6.97219 14.3056C7.16581 14.7538 7.61051 15.6832 7.96796 16.3529C8.28712 16.9293 8.4818 17.2811 8.4818 17.3129C8.44989 17.3129 8.06477 16.8975 7.87221 16.6411C7.39029 16.0053 6.55516 14.722 6.20196 14.0174C5.60621 12.8651 5.21497 11.619 5.04555 10.3339C4.98065 9.72674 4.94874 8.41486 5.04555 7.87019C5.17222 6.928 5.44386 6.01087 5.85089 5.15107C5.97855 4.89463 6.07536 4.70283 6.04344 4.70283C6.01153 4.67104 5.75408 4.99106 5.56152 5.27929C4.8492 6.30145 4.34699 7.4539 4.08382 8.67024C3.85935 9.50209 3.82637 9.8539 3.79445 11.1075V12.1311L3.6987 12.0347C3.53806 11.9075 3.28061 11.5229 2.99124 10.8828C2.54229 10.0192 2.38165 9.76382 2.41356 9.98742C2.4774 10.3392 2.60612 10.7292 2.99124 11.5875C3.3455 12.4194 3.60189 12.9312 3.92318 13.283C4.01999 13.3794 4.11574 13.5066 4.14765 13.5384L4.21255 13.6348L3.98701 13.603C3.60189 13.5712 3.37742 13.5066 2.86358 13.2512C2.6864 13.1553 2.50382 13.0697 2.31675 12.9948L2.22101 12.963L2.34973 13.1866C2.73485 13.7312 3.53806 14.6585 4.27638 15.4903C4.98278 16.2321 5.24023 16.4822 5.59343 16.7386C6.29983 17.2504 6.39664 17.314 6.39664 17.3458C6.36473 17.3458 5.85089 17.2504 5.49662 17.154C4.78703 16.9887 4.59553 16.9548 4.21042 16.9548L3.82424 16.923L3.88913 16.9866C4.04978 17.2727 5.04555 17.7569 6.52324 18.3323C7.13283 18.557 7.96796 18.9088 8.1286 18.9681L8.22541 18.9999H8.06477C7.93564 19.0028 7.80656 18.9921 7.67966 18.9681ZM18.4714 18.9999C18.5044 18.9999 19.3065 18.682 20.0778 18.3641C21.5555 17.7877 22.5247 17.3394 22.7439 17.0523L22.8407 16.9558H22.5832C22.2641 16.924 21.9449 16.9876 21.2662 17.1476C20.947 17.2123 20.6555 17.2758 20.5598 17.3076C20.4949 17.3076 20.3991 17.3076 20.3672 17.3394C20.3342 17.3394 20.3342 17.3394 20.3342 17.3076C20.3342 17.3076 20.5917 17.1158 20.8811 16.8922C21.4587 16.4758 21.6513 16.2564 22.4226 15.4204C22.8784 14.9653 23.3075 14.4845 23.7077 13.9803C24.0609 13.5649 24.478 12.9884 24.446 12.9884C24.4141 12.9566 24.1269 13.053 23.8077 13.2448C23.6152 13.3402 23.3907 13.4367 23.262 13.5002C23.0694 13.5649 22.5875 13.6285 22.5237 13.5967C22.4907 13.5967 22.5875 13.4684 22.7481 13.3084C23.1013 12.893 23.3588 12.4448 23.712 11.613C23.8396 11.2611 24.0003 10.8447 24.0652 10.6529C24.1939 10.3011 24.2897 9.94927 24.2577 9.91748C24.2258 9.88569 24.1609 10.0128 23.8396 10.6847C23.3907 11.5494 23.2301 11.8048 23.0694 11.9966L22.9088 12.1248L22.8769 11.1011C22.8769 9.94927 22.8449 9.66104 22.7162 8.9892C22.6194 8.6056 22.5237 8.28558 22.33 7.64554C22.081 6.95745 21.7694 6.29345 21.3992 5.66183C21.046 5.11822 20.6928 4.63819 20.6545 4.70177C20.697 4.84454 20.7507 4.98378 20.8151 5.11822C21.1087 5.7322 21.3348 6.37598 21.4896 7.03835C21.6502 7.71018 21.6832 8.0302 21.6832 9.02205C21.6957 9.43844 21.6846 9.85519 21.6502 10.2703C21.4807 11.5014 21.1219 12.6991 20.5864 13.8213C20.0261 14.8565 19.3929 15.8508 18.6916 16.7969C18.4661 17.0533 18.2097 17.3405 18.2097 17.3087C18.2097 17.2769 18.3384 17.0533 18.7236 16.285C19.4619 15.005 19.7512 14.3331 20.1066 13.1495C20.4025 12.1813 20.5866 11.1826 20.6555 10.1729C20.7593 8.61941 20.4955 7.06337 19.8853 5.63004C19.2108 3.96636 18.1501 2.52626 16.6086 1.17942C15.998 0.635804 15.9703 0.604014 15.5809 0.347573C15.099 0.0296708 15.0671 -0.00423869 15.2916 0.0296708C16.0628 0.189681 17.6682 0.957944 18.6321 1.59799C19.1459 1.9498 19.4672 2.20518 20.1747 2.87701C20.813 3.48526 21.0098 3.67706 21.2662 4.02888C21.8299 4.82222 22.3141 5.66871 22.712 6.5562C23.1609 7.64448 23.5471 8.88748 23.5471 9.37175C23.5471 9.75641 23.8035 9.14816 23.9641 8.3481C24.1248 7.48447 24.1567 7.28843 24.1567 6.26902C24.1897 4.98894 24.1248 4.57355 23.8375 3.35704C23.8165 3.19507 23.7845 3.0347 23.7418 2.87701C23.7737 2.87701 23.9024 3.06881 24.0311 3.35704C24.5741 4.4428 24.9335 5.61034 25.095 6.81264C25.1269 7.26088 25.1269 8.57275 25.0631 8.98814C24.9864 9.6765 24.8245 10.3528 24.5812 11.0015C24.4524 11.418 24.3567 11.7051 24.3886 11.7051C24.5173 11.7051 25.4524 10.2015 25.7376 9.52964C25.8014 9.40248 25.962 8.95423 26.1227 8.50599C26.2833 8.0906 26.4418 7.67415 26.4759 7.61057C26.5408 7.51414 26.5408 7.48235 26.5727 7.54593C26.5727 7.61057 26.6046 7.93059 26.6365 8.2877C26.7014 9.05596 26.7014 9.40777 26.6046 9.98318C26.3801 11.2633 25.7376 12.8623 25.0631 13.887C24.6811 14.4356 24.251 14.9495 23.7779 15.4225C23.4886 15.7404 23.2003 16.0297 23.1673 16.0583L23.1354 16.1537L23.2003 16.1219C23.4247 16.0583 24.3567 15.5782 24.9024 15.1936C25.2556 14.9382 25.8663 14.4264 26.3152 14.0428C26.5078 13.8499 26.6684 13.6899 26.7014 13.7249C26.5587 14.0411 26.3844 14.3421 26.1812 14.6235C25.8568 15.1504 25.4801 15.6435 25.0567 16.0954C24.7192 16.4541 24.3436 16.7753 23.9365 17.0533C22.5237 18.1405 20.4672 18.9088 18.7331 19.0042L18.4714 18.9999Z" fill="#8F8F8F"/>
<path d="M30.9219 17.3981H33.1081V11.5265H39.1604V9.68903H33.1081V5.24582H39.7168V3.36914H30.9219V17.3981Z" fill="#8F8F8F"/>
<path d="M50.5656 15.5119H43.8112V11.1567H50.205V9.34887H43.8112V5.24582H50.5656V3.36914H41.625V17.3981H50.5656V15.5119Z" fill="#8F8F8F"/>
<path d="M54.9363 7.06422H55.0246L62.3258 17.3981H64.2972V3.36914H62.1695V13.7137H62.0907L54.7906 3.36914H52.8086V17.3981H54.9363V7.06422Z" fill="#8F8F8F"/>
<path d="M69.0769 3.36914H66.8906V17.3981H69.0769V3.36914Z" fill="#8F8F8F"/>
<path d="M70.8086 17.3981H73.2289L76.7822 12.051H76.8502L80.3535 17.3981H82.911L78.2258 10.4372V10.3789L82.9993 3.36914H80.5301L77.0162 8.79466H76.9375L73.4629 3.36914H70.8565L75.4832 10.3015V10.3693L70.8086 17.3981Z" fill="#8F8F8F"/>
<path d="M31.6826 20.7109H30.9453V28.5048H31.6826V20.7109Z" fill="#8F8F8F"/>
<path d="M38.842 27.2194H38.8047L34.2163 20.7109H33.4844V28.5048H34.2163V21.991H34.2546L38.859 28.5048H39.5739V20.7109H38.842V27.2194Z" fill="#8F8F8F"/>
<path d="M43.9428 20.7109H41.3672V28.5038H43.9428C45.1173 28.5038 46.029 28.1625 46.678 27.4801C47.3269 26.7977 47.6514 25.839 47.6514 24.6042C47.6514 23.3728 47.3262 22.4159 46.6758 21.7335C46.0255 21.0511 45.1144 20.7102 43.9428 20.7109ZM46.1194 26.998C45.601 27.5568 44.8609 27.8358 43.8992 27.8351H42.1098V21.3806H43.8992C44.8609 21.3806 45.601 21.6597 46.1194 22.2178C46.6379 22.7759 46.8975 23.5735 46.8982 24.6105C46.8982 25.6448 46.6386 26.4406 46.1194 26.998Z" fill="#8F8F8F"/>
<path d="M54.4468 25.7401C54.4468 26.4028 54.2425 26.9354 53.834 27.3381C53.4255 27.7408 52.8669 27.9425 52.1584 27.9432C51.4492 27.9432 50.8907 27.7415 50.4828 27.3381C50.075 26.9347 49.8708 26.4021 49.8701 25.7401V20.7109H49.1328V25.7825C49.1328 26.6303 49.4048 27.3173 49.9488 27.8436C50.4928 28.3699 51.2293 28.6316 52.1584 28.6288C53.0875 28.6288 53.8251 28.3671 54.3712 27.8436C54.9173 27.3201 55.1901 26.6331 55.1893 25.7825V20.7109H54.4446L54.4468 25.7401Z" fill="#8F8F8F"/>
<path d="M60.0683 24.2879L59.2225 24.076C58.6438 23.9276 58.2261 23.7482 57.9693 23.5377C57.8458 23.4404 57.7467 23.3159 57.6799 23.1739C57.6131 23.0319 57.5803 22.8764 57.5842 22.7196C57.5809 22.5148 57.6276 22.3122 57.7202 22.1292C57.8129 21.9463 57.9487 21.7885 58.1161 21.6695C58.4707 21.3968 58.9215 21.2608 59.4683 21.2615C60.0151 21.2622 60.4726 21.3964 60.8407 21.6642C61.0115 21.7865 61.153 21.9449 61.2551 22.1281C61.3572 22.3113 61.4173 22.5148 61.4311 22.7239H62.1758C62.1688 22.4262 62.0944 22.1339 61.9581 21.869C61.8218 21.604 61.6271 21.3731 61.3885 21.1937C60.8843 20.7924 60.2527 20.5918 59.4938 20.5918C58.7193 20.5918 58.081 20.7942 57.5789 21.199C57.3389 21.3793 57.1452 21.6135 57.0133 21.8825C56.8815 22.1516 56.8154 22.4478 56.8204 22.7472C56.8116 22.9784 56.8517 23.2089 56.938 23.4237C57.0244 23.6386 57.155 23.833 57.3214 23.9944C57.6555 24.3151 58.1874 24.5673 58.9172 24.751L59.8885 24.999C60.4708 25.1473 60.8935 25.3356 61.1566 25.5638C61.2852 25.6728 61.3875 25.8092 61.456 25.9629C61.5245 26.1166 61.5574 26.2837 61.5524 26.4518C61.5541 26.6651 61.5035 26.8756 61.4048 27.0649C61.3062 27.2542 61.1625 27.4166 60.9864 27.5379C60.6084 27.8205 60.1265 27.9618 59.5406 27.9618C58.93 27.9618 58.4222 27.817 58.0172 27.5273C57.8239 27.4015 57.6622 27.2332 57.5445 27.0354C57.4269 26.8375 57.3564 26.6154 57.3384 26.3861H56.5938C56.6058 26.7026 56.6885 27.0125 56.8357 27.2933C56.9829 27.5741 57.191 27.8187 57.4448 28.0095C57.9725 28.4214 58.6463 28.6273 59.4662 28.6273C60.33 28.6273 61.0187 28.4214 61.5322 28.0095C61.7813 27.815 61.9809 27.5647 62.1147 27.2789C62.2485 26.9932 62.3128 26.68 62.3024 26.3649C62.3024 25.8245 62.1269 25.3921 61.7758 25.0678C61.4247 24.7436 60.8556 24.4836 60.0683 24.2879Z" fill="#8F8F8F"/>
<path d="M63.1484 21.3806H65.7676V28.5048H66.5102V21.3806H69.1294V20.7109H63.1484V21.3806Z" fill="#8F8F8F"/>
<path d="M75.2571 24.4068C75.5584 23.998 75.7149 23.5011 75.7018 22.9942C75.7018 22.2991 75.4752 21.7456 75.022 21.3337C74.5688 20.9218 73.9602 20.7156 73.1964 20.7148H70.3984V28.5045H71.1368V25.3138H73.257L75.0571 28.5045H75.9188L74.0262 25.1941C74.5163 25.083 74.9518 24.8044 75.2571 24.4068ZM73.1368 24.66H71.1368V21.375H73.1102C73.6819 21.375 74.129 21.5198 74.4517 21.8095C74.7744 22.0991 74.9365 22.5015 74.9379 23.0165C74.9379 23.5392 74.7798 23.9444 74.4634 24.2319C74.1471 24.5194 73.7049 24.6621 73.1368 24.66Z" fill="#8F8F8F"/>
<path d="M82.1372 20.7109L79.8212 24.4113H79.7946L77.4786 20.7109H76.6328L79.4361 25.1351V28.5048H80.1797V25.1351L82.983 20.7109H82.1372Z" fill="#8F8F8F"/>
</g>
<defs>
<clipPath id="clip0_1_4147">
<rect width="83" height="32" fill="white"/>
</clipPath>
</defs>
</svg>
