<svg width="1158" height="279" viewBox="0 0 1158 279" fill="none" xmlns="http://www.w3.org/2000/svg">
<path d="M854.845 1.5H853.345V3V119.209V120.709H854.845H879.734H881.234V119.209V43.4037L934.729 120.068L935.177 120.709H935.959H964.25H965.75V119.209V3V1.5H964.25H939.361H937.861V3V77.613L884.36 2.13259L883.912 1.5H883.137H854.845Z" stroke="white" stroke-width="3"/>
<path d="M762.458 1.5H761.413L761.051 2.47973L718.077 118.689L717.329 120.709H719.483H747.059H748.14L748.482 119.684L758.346 90.0903H798.627L808.667 119.691L809.012 120.709H810.087H838.379H840.514L839.79 118.701L797.89 2.49123L797.533 1.5H796.479H762.458ZM765.619 68.4681L778.573 29.9209L791.527 68.4681H765.619Z" stroke="white" stroke-width="3"/>
<path d="M608.472 1.5H606.972V3V119.209V120.709H608.472H636.405H637.905V119.209V75.0493H648.494L678.489 120.041L678.934 120.709H679.737H711.968H714.859L713.194 118.346L680.923 72.5132C688.01 71.2666 693.862 68.8615 698.401 65.2305L698.405 65.2277C703.685 60.9777 706.306 55.1591 706.306 47.9439V27.5311C706.306 22.9193 705.401 18.8821 703.522 15.4803C701.639 12.0717 698.823 9.38446 695.136 7.41179C687.864 3.40297 676.323 1.5 660.757 1.5H608.472ZM672.638 26.6305L672.672 26.6531L672.707 26.6738C674.702 27.8524 675.91 30.1486 675.91 34.1563V42.393C675.91 47.2341 674.75 50.0195 672.948 51.3847C671.999 52.0421 670.524 52.6095 668.405 53.005C666.288 53.4002 663.626 53.6062 660.399 53.6062H637.905V24.3756H660.399C666.566 24.3756 670.528 25.2236 672.638 26.6305Z" stroke="white" stroke-width="3"/>
<path d="M516.083 1.5H515.038L514.676 2.47973L471.702 118.689L470.954 120.709H473.108H500.684H501.765L502.107 119.684L511.971 90.0903H552.252L562.292 119.691L562.637 120.709H563.712H592.004H594.139L593.415 118.701L551.515 2.49123L551.158 1.5H550.104H516.083ZM519.244 68.4681L532.198 29.9209L545.152 68.4681H519.244Z" stroke="white" stroke-width="3"/>
<path d="M322.578 1.5H321.078V3V119.209V120.709H322.578H348.184H349.684V119.209V40.0036L377.746 119.708L378.099 120.709H379.161H401.543H402.616L402.963 119.694L429.946 40.7184V119.209V120.709H431.446H456.694H458.194V119.209V3V1.5H456.694H419.27H418.196L417.85 2.51649L390.97 81.4562L363.747 2.51101L363.399 1.5H362.329H322.578Z" stroke="white" stroke-width="3"/>
<path d="M193.438 1.5H191.938V3V87.3369C191.938 98.9926 196.328 107.907 205.182 113.831C213.93 119.683 226.861 122.5 243.753 122.5C260.704 122.5 273.679 119.683 282.456 113.832C291.34 107.91 295.748 98.9949 295.748 87.3369V3V1.5H294.248H266.315H264.815V3V87.3369C264.815 92.2634 263.27 95.3056 260.529 96.9732C257.684 98.6556 252.324 99.6244 244.111 99.6244C235.81 99.6244 230.245 98.6641 227.136 96.9612C224.408 95.291 222.871 92.2516 222.871 87.3369V3V1.5H221.371H193.438Z" stroke="white" stroke-width="3"/>
<path fill-rule="evenodd" clip-rule="evenodd" d="M1151.95 186.411C1139.51 183.65 1125.5 182.27 1109.91 182.27C1090.89 182.27 1081.38 187.785 1081.38 198.814V242.874C1081.38 248.276 1083.92 252.103 1088.98 254.353C1094.16 256.604 1101.92 257.73 1112.28 257.73C1117.79 257.73 1123.7 256.886 1130 255.197V229.707H1112.11V212.488H1155.16V269.378C1149.53 271.403 1142.33 273.092 1133.55 274.442C1124.88 275.793 1116.89 276.468 1109.58 276.468C1103.27 276.468 1097.7 276.186 1092.86 275.624C1088.02 275.061 1083.24 274.104 1078.51 272.754C1073.45 271.403 1069.29 269.603 1066.02 267.352C1062.76 264.989 1060.11 261.95 1058.09 258.236C1056.06 254.297 1055.05 249.795 1055.05 244.731V199.152C1055.05 193.637 1056.18 188.685 1058.43 184.296C1060.68 179.794 1063.72 176.249 1067.54 173.661C1071.14 171.298 1075.42 169.272 1080.37 167.584C1085.44 165.896 1090.39 164.77 1095.23 164.207C1099.28 163.757 1104.17 163.532 1109.91 163.532C1125.44 163.532 1140.3 164.714 1154.48 167.077V186.997C1153.64 186.795 1152.8 186.6 1151.95 186.411ZM1056.17 183.15C1058.59 178.301 1061.91 174.414 1066.12 171.564L1066.14 171.554L1066.15 171.544C1069.97 169.042 1074.44 166.93 1079.55 165.187L1079.56 165.184L1079.57 165.181C1084.78 163.443 1089.91 162.277 1094.93 161.692L1094.94 161.691L1094.95 161.691C1099.12 161.227 1104.12 161 1109.91 161C1125.57 161 1140.57 162.191 1154.9 164.58L1157.01 164.932V190.213L1153.89 189.459C1141.07 186.364 1126.42 184.803 1109.91 184.803C1100.57 184.803 1093.97 186.172 1089.79 188.597C1085.82 190.899 1083.92 194.199 1083.92 198.814V242.874C1083.92 245.168 1084.45 246.968 1085.4 248.398C1086.34 249.83 1087.82 251.065 1090 252.035C1094.69 254.073 1102.04 255.197 1112.28 255.197C1116.99 255.197 1122.06 254.55 1127.47 253.231V232.239H1109.58V209.956H1157.69V271.157L1156.01 271.76C1150.18 273.86 1142.81 275.58 1133.94 276.944C1125.17 278.311 1117.04 279 1109.58 279C1103.2 279 1097.53 278.716 1092.57 278.139C1087.6 277.561 1082.69 276.579 1077.84 275.194C1072.59 273.792 1068.15 271.892 1064.59 269.436L1064.56 269.42L1064.54 269.403C1060.95 266.807 1058.06 263.476 1055.87 259.449L1055.85 259.422L1055.84 259.394C1053.6 255.049 1052.52 250.14 1052.52 244.731V199.152C1052.52 193.287 1053.72 187.934 1056.17 183.15Z" fill="white"/>
<path fill-rule="evenodd" clip-rule="evenodd" d="M924.73 162.688H955.244L1004.41 232.052V162.688H1032.94V277.311H1002.41L953.26 206.867V277.311H924.73V162.688ZM950.728 198.813L1003.73 274.779H1030.41V165.22H1006.94V240.004L953.935 165.22H927.263V274.779H950.728V198.813Z" fill="white"/>
<path fill-rule="evenodd" clip-rule="evenodd" d="M871.403 162.688H902.802V277.311H871.403V162.688ZM873.935 165.22V274.779H900.27V165.22H873.935Z" fill="white"/>
<path fill-rule="evenodd" clip-rule="evenodd" d="M755.265 162.688H807.09C821.8 162.688 832.919 164.476 840.035 168.396C843.68 170.347 846.498 173.027 848.387 176.445C850.269 179.852 851.15 183.854 851.15 188.347V207.592C851.15 214.7 848.55 220.519 843.284 224.757L843.279 224.762C839.198 228.027 834.076 230.252 828.012 231.525L860.25 277.311H823.629L794.931 234.264H786.664V277.311H755.265V162.688ZM784.132 231.732H796.286L824.984 274.779H855.37L823.634 229.706C824.586 229.578 825.513 229.43 826.417 229.261C832.67 228.09 837.763 225.931 841.697 222.785C846.311 219.071 848.618 214.007 848.618 207.592V188.347C848.618 180.019 845.354 174.11 838.827 170.622C832.299 167.02 821.721 165.22 807.09 165.22H757.797V274.779H784.132V231.732ZM817.728 188.466L817.671 188.428C815.977 187.299 812.536 186.49 806.752 186.49H786.664V211.812H806.752C809.753 211.812 812.189 211.62 814.095 211.264C815.999 210.909 817.212 210.419 817.927 209.93C819.194 208.957 820.257 206.785 820.257 202.358V194.593C820.257 191.031 819.197 189.334 817.788 188.501L817.728 188.466ZM819.413 211.981C817.163 213.556 812.942 214.344 806.752 214.344H784.132V183.958H806.752C812.605 183.958 816.712 184.746 819.076 186.321C821.552 187.784 822.79 190.542 822.79 194.593V202.358C822.79 207.085 821.664 210.293 819.413 211.981Z" fill="white"/>
<path fill-rule="evenodd" clip-rule="evenodd" d="M648.854 162.688H737.48V186.49H680.253V206.579H731.909V230.381H680.253V253.509H739.168V277.311H648.854V162.688ZM677.72 256.041V227.849H729.377V209.111H677.72V183.958H734.948V165.22H651.386V274.779H736.636V256.041H677.72Z" fill="white"/>
<path fill-rule="evenodd" clip-rule="evenodd" d="M542.442 162.688H631.069V186.49H573.842V206.579H625.498V230.381H573.842V253.509H632.757V277.311H542.442V162.688ZM571.309 256.041V227.849H622.966V209.111H571.309V183.958H628.537V165.22H544.975V274.779H630.225V256.041H571.309Z" fill="white"/>
<path fill-rule="evenodd" clip-rule="evenodd" d="M412.292 162.688H442.806L491.972 232.052V162.688H520.501V277.311H489.975L440.821 206.867V277.311H412.292V162.688ZM438.289 198.813L491.296 274.779H517.969V165.22H494.504V240.004L441.497 165.22H414.824V274.779H438.289V198.813Z" fill="white"/>
<path fill-rule="evenodd" clip-rule="evenodd" d="M358.964 162.688H390.364V277.311H358.964V162.688ZM361.497 165.22V274.779H387.831V165.22H361.497Z" fill="white"/>
<path fill-rule="evenodd" clip-rule="evenodd" d="M333.629 186.411C321.195 183.65 307.183 182.27 291.595 182.27C272.575 182.27 263.065 187.785 263.065 198.814V242.874C263.065 248.276 265.597 252.103 270.662 254.353C275.839 256.604 283.604 257.73 293.958 257.73C299.472 257.73 305.381 256.886 311.683 255.197V229.707H293.789V212.488H336.836V269.378C331.209 271.403 324.007 273.092 315.228 274.442C306.563 275.793 298.572 276.468 291.257 276.468C284.955 276.468 279.384 276.186 274.544 275.624C269.705 275.061 264.922 274.104 260.195 272.754C255.131 271.403 250.967 269.603 247.703 267.352C244.44 264.989 241.795 261.95 239.769 258.236C237.743 254.297 236.73 249.795 236.73 244.731V199.152C236.73 193.637 237.856 188.685 240.107 184.296C242.358 179.794 245.396 176.249 249.223 173.661C252.824 171.298 257.1 169.272 262.052 167.584C267.117 165.896 272.069 164.77 276.908 164.207C280.959 163.757 285.855 163.532 291.595 163.532C307.125 163.532 321.981 164.714 336.161 167.077V186.997C335.324 186.795 334.48 186.6 333.629 186.411ZM237.848 183.152C240.275 178.302 243.589 174.415 247.804 171.564L247.818 171.554L247.833 171.544C251.646 169.042 256.123 166.93 261.235 165.187L261.243 165.184L261.252 165.181C266.465 163.443 271.588 162.277 276.615 161.692L276.622 161.691L276.628 161.691C280.801 161.227 285.796 161 291.595 161C307.254 161 322.249 162.191 336.577 164.58L338.693 164.932V190.213L335.567 189.459C322.747 186.364 308.096 184.803 291.595 184.803C282.247 184.803 275.649 186.172 271.468 188.597C267.497 190.899 265.597 194.199 265.597 198.814V242.874C265.597 245.168 266.13 246.968 267.076 248.398C268.024 249.83 269.502 251.065 271.68 252.035C276.374 254.073 283.716 255.197 293.958 255.197C298.674 255.197 303.736 254.55 309.151 253.231V232.239H291.257V209.956H339.368V271.157L337.694 271.76C331.859 273.861 324.483 275.58 315.613 276.945C306.845 278.311 298.724 279 291.257 279C284.884 279 279.212 278.716 274.252 278.139C269.282 277.561 264.372 276.579 259.521 275.195C254.271 273.793 249.826 271.892 246.266 269.436L246.242 269.42L246.218 269.403C242.634 266.807 239.743 263.476 237.546 259.449L237.531 259.422L237.517 259.394C235.282 255.049 234.198 250.14 234.198 244.731V199.152C234.198 193.288 235.397 187.936 237.848 183.152Z" fill="white"/>
<path fill-rule="evenodd" clip-rule="evenodd" d="M106.411 162.688H136.925L186.091 232.052V162.688H214.62V277.311H184.095L134.94 206.867V277.311H106.411V162.688ZM132.408 198.813L185.415 274.779H212.088V165.22H188.623V240.004L135.616 165.22H108.943V274.779H132.408V198.813Z" fill="white"/>
<path fill-rule="evenodd" clip-rule="evenodd" d="M0 162.688H88.6266V186.49H31.3991V206.579H83.0558V230.381H31.3991V253.509H90.3147V277.311H0V162.688ZM28.867 256.041V227.849H80.5236V209.111H28.867V183.958H86.0944V165.22H2.53219V274.779H87.7826V256.041H28.867Z" fill="white"/>
</svg>
