<svg width="1072" height="212" viewBox="0 0 1072 212" fill="none" xmlns="http://www.w3.org/2000/svg">
<path d="M2.8997 4.83952C2.8997 4.83952 1.45026 46.2846 5.041 131.356C8.51081 213.562 86.6093 210.22 91.8659 209.902C92.0618 209.89 92.2208 209.888 92.4169 209.896C97.383 210.082 168.492 211.349 172.673 131.356L170.57 9.12696C170.529 6.74721 168.592 4.83952 166.217 4.83952H131.31C128.905 4.83952 126.956 6.79275 126.956 9.20217V131.356C123.574 160.525 111.745 170.62 89.9748 170.62C68.2043 170.62 53.9035 159.814 50.759 131.356V9.20216C50.759 6.79274 48.8096 4.83952 46.4049 4.83952H2.8997ZM2.8997 4.83952H0.722656M213.349 2.6582H250.122C251.996 2.6582 253.66 3.85981 254.252 5.64126L296.801 133.537L339.349 5.64125C339.942 3.8598 341.606 2.6582 343.48 2.6582H380.17C382.309 2.6582 384.131 4.21516 384.469 6.33159L410.007 166.257L472.065 5.44748C472.714 3.76648 474.328 2.6582 476.126 2.6582H518.038C519.844 2.6582 521.462 3.77506 522.106 5.46553L584.171 168.439L586.291 6.96344C586.323 4.57661 588.263 2.6582 590.645 2.6582H664.231C664.557 2.6582 664.89 2.69641 665.207 2.76994C704.992 11.9793 719.157 28.9751 721.325 63.7352C721.325 100.249 712.936 113.268 686.295 120.973C683.308 121.837 681.977 125.409 683.806 127.928L714.794 170.62L779.025 5.43708C779.676 3.76154 781.287 2.6582 783.082 2.6582H825.027C826.82 2.6582 828.43 3.75944 829.082 5.43264L888.957 158.918V7.02084C888.957 4.61142 890.907 2.6582 893.312 2.6582H932.396C933.824 2.6582 935.161 3.35929 935.974 4.53458L1028.29 137.9V7.02085C1028.29 4.61143 1030.24 2.6582 1032.64 2.6582H1065.25C1067.67 2.6582 1069.63 4.64013 1069.6 7.06775L1067.52 201.205C1067.5 203.596 1065.55 205.521 1063.17 205.521H1024.05C1022.61 205.521 1021.27 204.815 1020.46 203.632L930.321 72.4604V201.158C930.321 203.568 928.372 205.521 925.967 205.521H863.547C861.795 205.521 860.214 204.469 859.534 202.851L844.361 166.746C843.681 165.128 842.1 164.076 840.348 164.076H767.902C766.078 164.076 764.447 165.215 763.816 166.93L750.676 202.667C750.045 204.382 748.415 205.521 746.59 205.521H688.805C687.359 205.521 686.007 204.801 685.197 203.601L632.066 124.812V201.158C632.066 203.568 630.117 205.521 627.712 205.521H556.583C554.831 205.521 553.25 204.469 552.57 202.851L537.398 166.746C536.718 165.128 535.137 164.076 533.385 164.076H462.97C461.219 164.076 459.637 165.128 458.957 166.746L443.785 202.851C443.105 204.469 441.524 205.521 439.772 205.521H374.606C372.435 205.521 370.596 203.919 370.294 201.765L353.404 81.1857L310.885 202.603C310.273 204.351 308.626 205.521 306.777 205.521H284.648C282.799 205.521 281.152 204.351 280.54 202.603L238.021 81.1857L219.008 201.839C218.673 203.959 216.849 205.521 214.707 205.521H177.931C175.213 205.521 173.16 203.053 173.648 200.374L209.066 6.23638C209.444 4.16387 211.247 2.6582 213.349 2.6582ZM497.089 52.8286L525.391 126.993H470.965L497.089 52.8286ZM801.876 52.8286L830.177 126.993H775.751L801.876 52.8286ZM632.066 41.922V96.455H649.482C669.85 95.4638 677.871 91.3495 679.961 70.2791C678.435 49.7303 671.885 43.0888 649.482 41.922H632.066Z" stroke="white" stroke-width="4"/>
</svg>
