<svg width="1158" height="279" viewBox="0 0 1158 279" fill="none" xmlns="http://www.w3.org/2000/svg">
<path d="M854.845 1.5H853.345V3V119.209V120.709H854.845H879.734H881.234V119.209V43.4037L934.729 120.068L935.177 120.709H935.959H964.25H965.75V119.209V3V1.5H964.25H939.361H937.861V3V77.613L884.36 2.13259L883.912 1.5H883.137H854.845Z" stroke="white" stroke-width="3"/>
<path d="M762.458 1.5H761.413L761.051 2.47973L718.077 118.689L717.329 120.709H719.483H747.059H748.14L748.482 119.684L758.346 90.0903H798.627L808.667 119.691L809.012 120.709H810.087H838.379H840.514L839.79 118.701L797.89 2.49123L797.533 1.5H796.479H762.458ZM765.619 68.4681L778.573 29.9209L791.527 68.4681H765.619Z" stroke="white" stroke-width="3"/>
<path d="M608.472 1.5H606.972V3V119.209V120.709H608.472H636.405H637.905V119.209V75.0493H648.494L678.489 120.041L678.934 120.709H679.737H711.968H714.859L713.194 118.346L680.923 72.5132C688.01 71.2666 693.862 68.8615 698.401 65.2305L698.405 65.2277C703.685 60.9777 706.306 55.1591 706.306 47.9439V27.5311C706.306 22.9193 705.401 18.8821 703.522 15.4803C701.639 12.0717 698.823 9.38446 695.136 7.41179C687.864 3.40297 676.323 1.5 660.757 1.5H608.472ZM672.638 26.6305L672.672 26.6531L672.707 26.6738C674.702 27.8524 675.91 30.1486 675.91 34.1563V42.393C675.91 47.2341 674.75 50.0195 672.948 51.3847C671.999 52.0421 670.524 52.6095 668.405 53.005C666.288 53.4002 663.626 53.6062 660.399 53.6062H637.905V24.3756H660.399C666.566 24.3756 670.528 25.2236 672.638 26.6305Z" stroke="white" stroke-width="3"/>
<path d="M516.083 1.5H515.038L514.676 2.47973L471.702 118.689L470.954 120.709H473.108H500.684H501.765L502.107 119.684L511.971 90.0903H552.252L562.292 119.691L562.637 120.709H563.712H592.004H594.139L593.415 118.701L551.515 2.49123L551.158 1.5H550.104H516.083ZM519.244 68.4681L532.198 29.9209L545.152 68.4681H519.244Z" stroke="white" stroke-width="3"/>
<path d="M322.578 1.5H321.078V3V119.209V120.709H322.578H348.184H349.684V119.209V40.0036L377.746 119.708L378.099 120.709H379.161H401.543H402.616L402.963 119.694L429.946 40.7184V119.209V120.709H431.446H456.694H458.194V119.209V3V1.5H456.694H419.27H418.196L417.85 2.51649L390.97 81.4562L363.747 2.51101L363.399 1.5H362.329H322.578Z" stroke="white" stroke-width="3"/>
<path d="M193.438 1.5H191.938V3V87.3369C191.938 98.9926 196.328 107.907 205.182 113.831C213.93 119.683 226.861 122.5 243.753 122.5C260.704 122.5 273.679 119.683 282.456 113.832C291.34 107.91 295.748 98.9949 295.748 87.3369V3V1.5H294.248H266.315H264.815V3V87.3369C264.815 92.2634 263.27 95.3056 260.529 96.9732C257.684 98.6556 252.324 99.6244 244.111 99.6244C235.81 99.6244 230.245 98.6641 227.136 96.9612C224.408 95.291 222.871 92.2516 222.871 87.3369V3V1.5H221.371H193.438Z" stroke="white" stroke-width="3"/>
<path fill-rule="evenodd" clip-rule="evenodd" d="M875.649 230.526V274.655H849.374V230.863L809.792 165.343H839.605L862.68 208.125L885.587 165.343H915.568L875.649 230.526ZM862.671 202.507L841.192 162.684H805.079L846.714 231.604V277.315H878.309V231.276L920.315 162.684H883.994L862.671 202.507Z" fill="white"/>
<path fill-rule="evenodd" clip-rule="evenodd" d="M792.297 186.457C779.924 183.723 765.989 182.355 750.491 182.355C731.514 182.355 722.026 187.858 722.026 198.862V242.823C722.026 248.212 724.552 252.03 729.605 254.276C734.77 256.522 742.518 257.645 752.849 257.645C758.351 257.645 764.246 256.802 770.534 255.118V229.685H752.68V212.505H795.63V269.266C790.016 271.288 782.83 272.972 774.071 274.319C765.425 275.667 757.453 276.341 750.154 276.341C743.866 276.341 738.307 276.06 733.479 275.498C728.651 274.937 723.878 273.982 719.162 272.635C714.109 271.288 709.955 269.491 706.698 267.245C703.442 264.887 700.803 261.855 698.782 258.15C696.761 254.22 695.75 249.728 695.75 244.675V199.199C695.75 193.697 696.873 188.756 699.119 184.377C701.365 179.885 704.396 176.348 708.214 173.765C711.807 171.407 716.074 169.386 721.015 167.702C726.068 166.018 731.009 164.895 735.837 164.333C739.879 163.884 744.764 163.659 750.491 163.659C765.986 163.659 780.808 164.838 794.957 167.197V187.072C794.078 186.86 793.192 186.655 792.297 186.457ZM696.745 183.177C699.176 178.319 702.498 174.422 706.724 171.563L706.74 171.552L706.755 171.542C710.57 169.038 715.048 166.926 720.157 165.185L720.166 165.182L720.174 165.179C725.384 163.442 730.504 162.276 735.53 161.692L735.537 161.691L735.543 161.69C739.714 161.227 744.702 161 750.491 161C766.121 161 781.09 162.189 795.394 164.573L797.616 164.944V190.449L794.333 189.657C781.554 186.572 766.947 185.015 750.491 185.015C741.172 185.015 734.617 186.381 730.476 188.783C726.556 191.056 724.685 194.304 724.685 198.862V242.823C724.685 245.09 725.211 246.86 726.138 248.261C727.067 249.664 728.52 250.882 730.675 251.841C735.333 253.863 742.636 254.985 752.849 254.985C757.513 254.985 762.519 254.348 767.875 253.052V232.344H750.021V209.845H798.29V271.136L796.531 271.769C790.7 273.868 783.333 275.585 774.481 276.947C765.725 278.312 757.613 279 750.154 279C743.791 279 738.127 278.716 733.172 278.14C728.207 277.563 723.3 276.582 718.454 275.199C713.206 273.797 708.757 271.895 705.188 269.434L705.163 269.417L705.139 269.399C701.546 266.797 698.648 263.459 696.447 259.423L696.432 259.395L696.417 259.366C694.176 255.009 693.091 250.09 693.091 244.675V199.199C693.091 193.331 694.29 187.971 696.745 183.177Z" fill="white"/>
<path fill-rule="evenodd" clip-rule="evenodd" d="M579.573 162.684H631.415C646.097 162.684 657.219 164.468 664.35 168.396C668.006 170.354 670.837 173.044 672.735 176.479C674.626 179.902 675.509 183.918 675.509 188.418V207.62C675.509 214.749 672.899 220.594 667.611 224.85L667.605 224.855C663.558 228.092 658.494 230.307 652.514 231.588L684.712 277.315H647.845L619.212 234.365H611.168V277.315H579.573V162.684ZM608.508 231.705H620.635L649.269 274.655H679.586L647.921 229.684C648.922 229.55 649.895 229.393 650.842 229.213C657.015 228.039 662.049 225.894 665.943 222.778C670.547 219.073 672.849 214.02 672.849 207.62V188.418C672.849 180.109 669.593 174.214 663.08 170.733C656.567 167.14 646.012 165.343 631.415 165.343H582.233V274.655H608.508V231.705ZM641.958 188.65L641.898 188.61C640.243 187.506 636.845 186.698 631.078 186.698H611.168V211.697H631.078C634.067 211.697 636.489 211.506 638.38 211.153C640.267 210.801 641.457 210.318 642.149 209.845C643.362 208.911 644.42 206.798 644.42 202.398V194.65C644.42 191.122 643.371 189.485 642.021 188.687L641.958 188.65ZM643.71 211.999C641.465 213.571 637.254 214.357 631.078 214.357H608.508V184.039H631.078C636.917 184.039 641.016 184.825 643.374 186.397C645.844 187.857 647.079 190.608 647.079 194.65V202.398C647.079 207.114 645.956 210.314 643.71 211.999Z" fill="white"/>
<path fill-rule="evenodd" clip-rule="evenodd" d="M473.401 162.684H562.094V186.698H504.996V206.476H556.536V230.491H504.996V253.3H563.778V277.315H473.401V162.684ZM502.336 255.96V227.831H553.876V209.135H502.336V184.039H559.435V165.343H476.061V274.655H561.119V255.96H502.336Z" fill="white"/>
<path fill-rule="evenodd" clip-rule="evenodd" d="M343.544 162.684H374.191L423.044 231.607V162.684H451.775V277.315H421.116L372.275 207.32V277.315H343.544V162.684ZM369.616 198.861L422.504 274.655H449.116V165.343H425.704V239.958L372.816 165.343H346.204V274.655H369.616V198.861Z" fill="white"/>
<path fill-rule="evenodd" clip-rule="evenodd" d="M237.373 162.684H326.066V186.698H268.967V206.476H320.508V230.491H268.967V253.3H327.75V277.315H237.373V162.684ZM266.308 255.96V227.831H317.848V209.135H266.308V184.039H323.406V165.343H240.033V274.655H325.091V255.96H266.308Z" fill="white"/>
</svg>
